<?xml version="1.0" standalone="no"?>
<!DOCTYPE svg PUBLIC "-//W3C//DTD SVG 20010904//EN"
 "http://www.w3.org/TR/2001/REC-SVG-20010904/DTD/svg10.dtd">
<svg version="1.0" xmlns="http://www.w3.org/2000/svg"
 width="378.000000pt" height="379.000000pt" viewBox="0 0 378.000000 379.000000"
 preserveAspectRatio="xMidYMid meet">

<g transform="translate(0.000000,379.000000) scale(0.100000,-0.100000)"
fill="#000000" stroke="none">
<path d="M30 1890 l0 -1880 1875 0 1875 0 0 1880 0 1880 -1875 0 -1875 0 0
-1880z m1956 986 c108 -50 273 -250 363 -440 51 -108 102 -254 130 -373 12
-51 33 -109 46 -129 56 -82 46 -147 -45 -314 -72 -130 -85 -177 -57 -212 17
-23 36 -25 83 -9 41 13 43 13 88 -18 72 -50 130 -72 206 -78 39 -3 70 -10 70
-14 0 -5 -32 -18 -70 -30 -81 -24 -81 -31 5 -73 52 -25 131 -48 218 -61 20 -3
37 -10 37 -15 0 -5 -17 -12 -37 -16 -307 -56 -628 -124 -631 -134 -3 -7 -17
-26 -32 -44 -70 -77 -198 0 -161 97 9 22 8 27 -5 27 -9 0 -29 13 -45 29 -40
40 -40 88 0 133 26 30 111 214 111 240 0 6 -20 -8 -45 -31 -52 -48 -162 -121
-182 -121 -10 0 -13 36 -13 182 l0 181 61 158 62 158 53 22 c30 13 54 25 54
29 0 8 -131 168 -246 303 l-93 107 -77 -87 c-64 -74 -225 -268 -257 -310 -6
-9 7 -20 46 -39 l55 -27 61 -156 61 -157 0 -182 c0 -142 -3 -182 -13 -182 -19
0 -146 86 -189 128 -21 20 -38 31 -38 25 0 -29 85 -211 111 -237 41 -40 41
-96 0 -137 -16 -16 -36 -29 -45 -29 -13 0 -14 -5 -5 -27 35 -92 -84 -171 -155
-104 -14 14 -26 31 -26 38 0 22 -30 30 -359 93 -173 33 -317 63 -320 66 -10 9
23 24 54 24 46 0 139 27 201 57 85 41 85 48 4 72 -38 12 -70 25 -70 30 0 4 31
11 70 14 75 6 135 29 208 78 46 31 47 31 88 16 60 -22 88 -6 92 51 3 37 -6 60
-67 172 -93 169 -102 232 -46 314 13 20 34 78 46 129 27 116 80 268 129 374
89 191 241 377 353 433 72 36 96 37 163 6z m-22 -1650 c99 -41 130 -205 55
-291 -55 -62 -138 -70 -199 -18 -44 37 -63 80 -63 143 0 127 103 210 207 166z"/>
<path d="M1831 2849 c-31 -19 -32 -21 -17 -38 24 -26 36 -119 27 -203 -5 -40
-6 -75 -4 -78 3 -3 18 10 34 28 16 17 32 32 37 32 5 0 21 -13 37 -30 16 -16
32 -30 35 -30 4 0 3 26 -2 58 -12 71 -4 172 17 211 20 39 20 38 -15 56 -41 21
-108 19 -149 -6z"/>
<path d="M2019 2793 c-19 -22 -24 -184 -9 -256 11 -53 19 -64 228 -287 119
-128 218 -228 220 -221 5 14 -39 171 -75 266 -60 160 -165 337 -261 438 -70
73 -85 82 -103 60z"/>
<path d="M1705 2748 c-104 -115 -196 -269 -264 -441 -34 -85 -84 -263 -79
-279 6 -16 418 431 435 472 21 47 29 216 14 263 -18 54 -47 50 -106 -15z"/>
<path d="M1610 2244 c-162 -174 -300 -326 -306 -338 -19 -34 -25 -89 -14 -125
15 -54 292 -551 307 -551 7 0 13 4 13 10 0 5 -39 103 -86 217 -143 344 -138
327 -116 376 32 71 296 407 461 587 l41 45 41 -45 c181 -200 430 -518 461
-587 22 -49 27 -32 -116 -376 -47 -114 -86 -212 -86 -217 0 -6 6 -10 13 -10
15 0 292 497 307 550 12 41 3 99 -19 133 -19 29 -593 647 -601 647 -3 0 -138
-142 -300 -316z"/>
<path d="M1537 1982 c-41 -46 -117 -168 -117 -188 0 -13 22 -76 50 -141 58
-137 105 -198 213 -274 39 -27 74 -49 79 -49 4 0 8 75 8 167 l0 168 -55 140
-55 141 -54 26 c-50 25 -55 26 -69 10z m203 -517 c0 -33 -4 -55 -11 -55 -14 0
-89 53 -89 63 0 4 17 -4 37 -18 21 -14 39 -22 40 -18 1 5 4 25 8 46 9 53 15
46 15 -18z"/>
<path d="M2212 1972 l-52 -26 -55 -141 -55 -140 0 -173 0 -173 76 52 c116 81
165 142 224 281 27 66 50 129 50 142 0 21 -82 152 -118 188 -16 15 -21 14 -70
-10z m-113 -542 c4 0 22 11 41 25 18 14 36 23 38 20 3 -3 3 -6 1 -8 -2 -2 -21
-15 -41 -30 -20 -15 -41 -27 -47 -27 -7 0 -10 22 -9 58 2 56 2 56 5 10 2 -27
7 -48 12 -48z"/>
<path d="M1430 1416 c0 -7 -7 -19 -15 -26 -8 -7 -15 -16 -15 -21 0 -9 91 -51
98 -45 6 6 -51 106 -60 106 -5 0 -8 -6 -8 -14z"/>
<path d="M2346 1379 c-16 -28 -26 -52 -24 -55 7 -6 98 36 98 45 0 5 -7 14 -15
21 -8 7 -15 19 -15 26 0 27 -17 13 -44 -37z"/>
<path d="M1223 1349 c-33 -21 -86 -45 -117 -54 -32 -9 -56 -18 -54 -19 6 -6
276 -86 288 -86 6 0 23 9 37 20 34 27 76 25 110 -4 l27 -24 22 21 c20 19 21
24 9 47 -10 19 -46 40 -138 82 l-125 55 -59 -38z"/>
<path d="M2412 1331 c-141 -64 -166 -89 -130 -128 l21 -22 30 25 c25 21 38 25
65 20 19 -3 42 -12 52 -21 9 -8 22 -15 30 -15 15 0 272 78 278 85 5 5 3 6 -63
26 -22 6 -62 26 -90 44 -27 17 -54 34 -60 37 -5 3 -66 -20 -133 -51z"/>
<path d="M1060 1184 c-30 -19 -86 -44 -125 -56 l-70 -22 270 -53 c149 -29 276
-52 284 -50 27 4 22 25 -7 32 -42 9 -75 48 -77 92 l-3 38 -88 27 c-49 15 -98
26 -109 26 -11 0 -45 -15 -75 -34z"/>
<path d="M2576 1192 l-88 -27 -3 -38 c-2 -44 -35 -83 -77 -92 -29 -7 -34 -28
-7 -32 8 -2 136 21 284 50 l270 53 -70 22 c-38 11 -96 37 -129 57 -32 19 -66
35 -75 34 -9 0 -56 -12 -105 -27z"/>
<path d="M1555 1185 c-49 -48 -19 -119 50 -119 43 0 75 30 75 71 0 32 -42 73
-75 73 -14 0 -37 -11 -50 -25z"/>
<path d="M2165 1185 c-49 -48 -19 -119 50 -119 43 0 75 30 75 71 0 32 -42 73
-75 73 -14 0 -37 -11 -50 -25z"/>
<path d="M1380 1180 c-11 -11 -20 -33 -20 -50 0 -17 9 -39 20 -50 45 -45 120
-11 120 53 0 20 -8 41 -18 50 -25 23 -78 21 -102 -3z"/>
<path d="M2337 1182 c-40 -45 -6 -122 53 -122 17 0 39 9 50 20 45 45 11 120
-53 120 -20 0 -41 -8 -50 -18z"/>
<path d="M1477 1032 c-40 -45 -6 -122 53 -122 17 0 39 9 50 20 45 45 11 120
-53 120 -20 0 -41 -8 -50 -18z"/>
<path d="M2240 1030 c-11 -11 -20 -33 -20 -50 0 -17 9 -39 20 -50 45 -45 120
-11 120 53 0 20 -8 41 -18 50 -25 23 -78 21 -102 -3z"/>
<path d="M1844 1191 c-44 -27 -67 -82 -62 -148 7 -82 18 -82 72 -3 27 38 51
70 55 70 4 0 29 -32 56 -72 l49 -71 13 29 c18 43 16 92 -8 141 -34 70 -110 94
-175 54z"/>
<path d="M1861 1008 l-43 -62 24 -18 c29 -22 89 -23 129 -2 30 15 30 16 13 42
-36 56 -69 102 -75 102 -3 0 -24 -28 -48 -62z"/>
</g>
</svg>
